<?xml version="1.0" encoding="UTF-8" standalone="yes"?>
<!DOCTYPE svg PUBLIC "-//W3C//DTD SVG 1.1//EN" "http://www.w3.org/Graphics/SVG/1.1/DTD/svg11.dtd">

<svg width="1024" height="1024" viewBox="0 0 1024 1024" xmlns="http://www.w3.org/2000/svg" xmlns:xlink="http://www.w3.org/1999/xlink" version="1.1" baseProfile="full">
    <g transform="scale(1.000000,-1.000000) translate(0,-1024)">
        <path d="M 183.448009 93.540040 L 1.000000 1.000000 L 1.000000 30.483291 L 125.824006 93.369616 L 1.000000 156.937637 L 1.000000 186.080080 Z" transform="scale(1.000000,1.000000) translate(720.791987,418.459960)" fill="#fffefe" opacity="1.000000"></path>
        <path d="M 1.000000 93.540040 L 183.448009 186.080080 L 183.448009 156.596789 L 58.792003 93.710464 L 183.448009 30.142444 L 183.448009 1.000000 Z" transform="scale(1.000000,1.000000) translate(119.231989,418.459960)" fill="#fffefe" opacity="1.000000"></path>
        <path d="M 250.874800 346.654001 L 137.295345 231.436001 L 69.147673 231.436001 L 1.000000 139.261600 C 1.000000 139.261600 73.202458 159.655186 115.317716 150.092093 L 1.000000 1.000000 L 150.743153 119.156061 C 171.630412 70.672335 137.295345 1.000000 137.295345 1.000000 L 228.158909 70.130800 L 228.158909 139.261600 L 341.738363 254.479601 L 364.454254 369.697601 L 250.874800 346.654001 Z" transform="scale(1.000000,1.000000) translate(329.272858,326.651215)" fill="#fffefe" opacity="1.000000"></path>
    </g>
</svg>