<?xml version="1.0" encoding="UTF-8" standalone="yes"?>
<!DOCTYPE svg PUBLIC "-//W3C//DTD SVG 1.1//EN" "http://www.w3.org/Graphics/SVG/1.1/DTD/svg11.dtd">

<svg width="500" height="500" viewBox="0 0 500 500" xmlns="http://www.w3.org/2000/svg" xmlns:xlink="http://www.w3.org/1999/xlink" version="1.1" baseProfile="full">
    <g transform="scale(1,-1) translate(0,-500)">
        <path d="M 501.000000 251.000000 C 501.000000 389.071187 389.071187 501.000000 251.000000 501.000000 C 112.928813 501.000000 1.000000 389.071187 1.000000 251.000000 C 1.000000 112.928813 112.928813 1.000000 251.000000 1.000000 C 389.071187 1.000000 501.000000 112.928813 501.000000 251.000000 Z" transform="scale(1.000000,1.000000) translate(-1.000000,-1.000000)" fill="#ffb36f" opacity="1.000000"></path>
        <path d="M 28.147134 3.556032 L 28.147134 121.793089 L 1.061278 121.793089 L 1.061278 134.443968 L 43.230873 134.443968 L 43.230873 16.125815 L 71.533159 16.125815 L 71.533159 3.556032 Z M 116.327080 3.556032 L 116.327080 81.569783 L 91.187514 81.569783 L 91.187514 94.139566 L 131.410820 94.139566 L 131.410820 16.125815 L 156.631482 16.125815 L 156.631482 3.556032 Z M 113.813124 126.821002 Q 113.813124 131.930011 117.300225 134.443968 Q 120.787326 136.957924 123.868950 136.957924 Q 127.031670 136.957924 130.518771 134.443968 Q 134.005872 131.930011 134.005872 126.821002 Q 134.005872 121.793089 130.518771 119.279133 Q 127.031670 116.765176 123.868950 116.765176 Q 120.787326 116.765176 117.300225 119.279133 Q 113.813124 121.793089 113.813124 126.821002 Z M 178.069935 3.556032 L 178.069935 94.139566 L 193.153674 94.139566 L 193.153674 74.352295 Q 199.641304 84.813598 208.805082 90.733561 Q 217.968859 96.653523 227.132637 96.653523 Q 235.161079 96.653523 241.729804 92.396016 Q 248.298529 88.138509 250.934129 81.245402 Q 253.569729 74.352295 253.569729 54.159546 L 253.569729 3.556032 L 238.485989 3.556032 L 238.485989 56.024740 Q 238.485989 69.081095 237.229011 73.257507 Q 235.972032 77.433919 232.606574 80.110066 Q 229.241116 82.786214 225.267443 82.786214 Q 217.320096 82.786214 208.196866 75.244344 Q 199.073637 67.702474 193.153674 56.349121 L 193.153674 3.556032 Z M 340.938722 7.205324 Q 330.315228 2.745079 325.530600 1.893577 Q 320.745973 1.042076 316.285728 1.042076 Q 306.797569 1.042076 298.931317 4.691368 Q 291.065066 8.340659 287.050845 15.477052 Q 283.036624 22.613445 283.036624 37.534994 L 283.036624 74.027913 L 260.411014 74.027913 L 260.411014 86.597696 L 283.036624 86.597696 L 283.036624 123.090615 L 298.120364 123.090615 L 298.120364 86.597696 L 338.424765 86.597696 L 338.424765 74.027913 L 298.120364 74.027913 L 298.120364 37.778281 Q 298.120364 26.830405 300.715416 22.329612 Q 303.310468 17.828818 307.649070 15.720339 Q 311.987673 13.611859 317.907635 13.611859 Q 328.855511 13.611859 340.938722 20.504966 Z" transform="scale(1.000000,1.000000) translate(79.000000,181.000000)" opacity="1.000000"></path>
    </g>
</svg>