<?xml version="1.0" encoding="UTF-8" standalone="yes"?>
<!DOCTYPE svg PUBLIC "-//W3C//DTD SVG 1.1//EN" "http://www.w3.org/Graphics/SVG/1.1/DTD/svg11.dtd">

<svg width="500" height="500" viewBox="0 0 500 500" xmlns="http://www.w3.org/2000/svg" xmlns:xlink="http://www.w3.org/1999/xlink" version="1.1" baseProfile="full">
    <defs>
        <linearGradient id="105553168447072105553159786880" x1="100.000000%" x2="0.000000%" y1="50.000000%" y2="50.000000%">
            <stop offset="0%" style="stop-color:#4ca0f0;stop-opacity:1.000000"></stop>
            <stop offset="100%" style="stop-color:#2371c6;stop-opacity:1.000000"></stop>
        </linearGradient>
    </defs>
    <g transform="scale(1,-1) translate(0,-500)">
        <path d="M 257.403409 427.823864 L 285.806818 456.227273 L 427.823864 456.227273 L 456.227273 427.823864 L 456.227273 285.806818 L 427.823864 257.403409 L 285.806818 257.403409 L 257.403409 285.806818 L 257.403409 427.823864 Z M 285.806818 427.823864 L 285.806818 285.806818 L 427.823864 285.806818 L 427.823864 427.823864 L 285.806818 427.823864 Z M 1.772727 172.193182 L 1.772727 342.613637 L 30.176136 371.017046 L 172.193182 371.017046 L 200.596591 342.613637 L 200.596591 200.596591 L 342.613637 200.596591 L 371.017046 172.193182 L 371.017046 30.176136 L 342.613637 1.772727 L 30.176136 1.772727 L 1.772727 30.176136 L 1.772727 172.193182 Z M 172.193182 200.596591 L 172.193182 342.613637 L 30.176136 342.613637 L 30.176136 200.596591 L 172.193182 200.596591 Z M 172.193182 172.193182 L 30.176136 172.193182 L 30.176136 30.176136 L 172.193182 30.176136 L 172.193182 172.193182 Z M 200.596591 30.176136 L 342.613637 30.176136 L 342.613637 172.193182 L 200.596591 172.193182 L 200.596591 30.176136 Z" transform="scale(1.000000,1.000000) translate(21.000000,21.000000)" fill="url(#105553168447072105553159786880)" opacity="1.000000"></path>
    </g>
</svg>